<svg width="53" height="64" viewBox="0 0 53 64" fill="none" xmlns="http://www.w3.org/2000/svg">
<g clip-path="url(#clip0_33_724)">
<path d="M31.6146 37.4577C57.4207 50.8265 45.4405 63.721 37.1432 62.1124C35.0732 61.651 34.146 61.1895 34.146 61.1895C34.146 61.1895 34.836 62.5695 36.4489 63.031C52.8106 68.7925 65.7137 45.7507 31.1445 36.7677C31.1445 36.7677 31.3731 36.9963 31.606 37.4577H31.6146Z" fill="black"/>
<path d="M28.0056 58.6447C-5.77 41.1473 9.90994 24.2708 20.7696 26.3761C23.4789 26.98 24.6924 27.584 24.6924 27.584C24.6924 27.584 24.5943 26.5768 21.6784 25.1739C0.263796 17.633 -16.6541 47.9905 28.5908 59.7476C28.5908 59.7476 28.3217 59.2486 28.0169 58.6447H28.0056Z" fill="black"/>
<path d="M39.3285 0C39.3285 0 50.603 11.4549 28.6019 28.729C10.9636 42.7294 24.5916 50.6543 28.5903 59.7474C18.2244 50.474 10.7832 42.3653 15.8743 34.7321C23.3271 23.4542 43.8751 18.0331 39.3285 0ZM33.5432 52.1867C38.8181 58.1864 32.0901 63.6415 32.0901 63.6415C32.0901 63.6415 45.546 56.7332 39.3626 48.1846C33.727 40.0035 29.3574 36.0015 52.9988 22.3652C52.9988 22.3652 15.7246 31.6387 33.5432 52.1867Z" fill="#D63447"/>
</g>
<defs>
<clipPath id="clip0_33_724">
<rect width="53" height="64" fill="white"/>
</clipPath>
</defs>
</svg>
