<svg width="32" height="32" viewBox="0 0 32 32" fill="none" xmlns="http://www.w3.org/2000/svg">
<rect width="32" height="32" rx="16" fill="black"/>
<g clip-path="url(#clip0_33_743)">
<path d="M17.8433 18.2173C28.327 23.6484 23.4601 28.8867 20.0893 28.2333C19.2484 28.0458 18.8717 27.8583 18.8717 27.8583C18.8717 27.8583 19.152 28.419 19.8073 28.6064C26.4542 30.9471 31.6961 21.5863 17.6523 17.937C17.6523 17.937 17.7452 18.0298 17.8398 18.2173H17.8433Z" fill="white"/>
<path d="M16.3775 26.8244C2.65615 19.7161 9.02613 12.86 13.4379 13.7153C14.5385 13.9606 15.0315 14.206 15.0315 14.206C15.0315 14.206 14.9917 13.7968 13.807 13.2269C5.10738 10.1634 -1.7655 22.4961 16.6152 27.2725C16.6152 27.2725 16.5059 27.0698 16.3821 26.8244H16.3775Z" fill="white"/>
<path d="M20.9769 3C20.9769 3 25.5572 7.65354 16.6193 14.6712C9.45369 20.3588 14.9901 23.5783 16.6145 27.2724C12.4034 23.505 9.38042 20.2109 11.4487 17.1099C14.4764 12.5283 22.824 10.3259 20.9769 3ZM18.6267 24.2008C20.7696 26.6382 18.0363 28.8544 18.0363 28.8544C18.0363 28.8544 23.5028 26.0479 20.9908 22.575C18.7013 19.2514 16.9262 17.6256 26.5305 12.0859C26.5305 12.0859 11.3878 15.8532 18.6267 24.2008Z" fill="#D63447"/>
</g>
<defs>
<clipPath id="clip0_33_743">
<rect width="21.5312" height="26" fill="white" transform="translate(5 3)"/>
</clipPath>
</defs>
</svg>
