<svg width="169" height="64" viewBox="0 0 169 64" fill="none" xmlns="http://www.w3.org/2000/svg">
<g clip-path="url(#clip0_34_772)">
<mask id="mask0_34_772" style="mask-type:luminance" maskUnits="userSpaceOnUse" x="0" y="0" width="53" height="64">
<path d="M53 0H0V64H53V0Z" fill="white"/>
</mask>
<g mask="url(#mask0_34_772)">
<path d="M31.6146 37.4576C57.4207 50.8264 45.4405 63.7209 37.1432 62.1123C35.0732 61.6509 34.146 61.1894 34.146 61.1894C34.146 61.1894 34.836 62.5694 36.4489 63.0309C52.8106 68.7924 65.7137 45.7506 31.1445 36.7676C31.1445 36.7676 31.3731 36.9962 31.606 37.4576H31.6146Z" fill="black"/>
<path d="M28.0052 58.6447C-5.77038 41.1473 9.90956 24.2708 20.7692 26.3761C23.4785 26.98 24.692 27.584 24.692 27.584C24.692 27.584 24.5939 26.5768 21.678 25.1739C0.26342 17.633 -16.6545 47.9905 28.5904 59.7476C28.5904 59.7476 28.3213 59.2486 28.0165 58.6447H28.0052Z" fill="black"/>
<path d="M39.3285 0C39.3285 0 50.603 11.4549 28.6019 28.729C10.9636 42.7294 24.5916 50.6543 28.5903 59.7474C18.2244 50.474 10.7832 42.3653 15.8743 34.7321C23.3271 23.4542 43.8751 18.0331 39.3285 0ZM33.5432 52.1867C38.8181 58.1864 32.0901 63.6415 32.0901 63.6415C32.0901 63.6415 45.546 56.7332 39.3626 48.1846C33.727 40.0035 29.3574 36.0015 52.9988 22.3652C52.9988 22.3652 15.7246 31.6387 33.5432 52.1867Z" fill="#D63447"/>
</g>
</g>
<path d="M61 51.77V16.98H74.377C78.2317 16.98 81.4493 17.764 84.03 19.332C86.6433 20.8673 88.6033 22.958 89.91 25.604C91.2493 28.2173 91.919 31.1247 91.919 34.326C91.919 37.854 91.184 40.9247 89.714 43.538C88.2767 46.1513 86.235 48.1767 83.589 49.614C80.9757 51.0513 77.905 51.77 74.377 51.77H61ZM82.217 34.326C82.217 32.5293 81.9067 30.9613 81.286 29.622C80.6653 28.25 79.767 27.1883 78.591 26.437C77.415 25.6857 76.0103 25.31 74.377 25.31H70.555V43.44H74.377C76.043 43.44 77.4477 43.048 78.591 42.264C79.767 41.48 80.6653 40.402 81.286 39.03C81.9067 37.6253 82.217 36.0573 82.217 34.326Z" fill="black"/>
<path d="M95.1989 51.77V25.996H104.509V51.77H95.1989ZM95.1989 23.84V16H104.509V23.84H95.1989Z" fill="black"/>
<path d="M116.275 25.996L119.95 32.317L120.44 33.346L120.93 32.317L124.605 25.996H134.062L125.781 38.736L134.307 51.77H124.85L120.881 45.449L120.44 44.469L119.999 45.449L116.03 51.77H106.573L115.099 38.981L106.818 25.996H116.275Z" fill="black"/>
<path d="M136.351 51.77V25.996H145.661V51.77H136.351ZM136.351 23.84V16H145.661V23.84H136.351Z" fill="black"/>
<path d="M168.453 50.349C167.603 50.7083 166.689 51.0513 165.709 51.378C164.761 51.672 163.781 51.9007 162.769 52.064C161.789 52.2273 160.825 52.309 159.878 52.309C158.473 52.309 157.183 52.0803 156.007 51.623C154.831 51.133 153.883 50.349 153.165 49.271C152.479 48.1603 152.136 46.674 152.136 44.812V33.003H148.951V25.996H152.136V17.911H161.446V25.996H166.493V33.003H161.446V41.529C161.446 42.3783 161.625 42.9827 161.985 43.342C162.344 43.6687 162.834 43.832 163.455 43.832C163.912 43.832 164.435 43.7503 165.023 43.587C165.611 43.4237 166.199 43.2277 166.787 42.999L168.453 50.349Z" fill="black"/>
<defs>
<clipPath id="clip0_34_772">
<rect width="53" height="64" fill="white"/>
</clipPath>
</defs>
</svg>
