<svg width="32" height="32" viewBox="0 0 32 32" fill="none" xmlns="http://www.w3.org/2000/svg">
<rect width="32" height="32" rx="8" fill="#D63447"/>
<g clip-path="url(#clip0_33_732)">
<path d="M17.8316 18.3879C29.1218 24.2368 23.8805 29.8781 20.2504 29.1743C19.3448 28.9724 18.9391 28.7706 18.9391 28.7706C18.9391 28.7706 19.241 29.3743 19.9466 29.5762C27.1049 32.0969 32.75 22.0161 17.626 18.086C17.626 18.086 17.726 18.186 17.8279 18.3879H17.8316Z" fill="white"/>
<path d="M16.2528 27.657C1.47593 20.0019 8.3359 12.6184 13.087 13.5395C14.2723 13.8037 14.8032 14.0679 14.8032 14.0679C14.8032 14.0679 14.7603 13.6273 13.4846 13.0135C4.11572 9.71441 -3.28585 22.9958 16.5088 28.1395C16.5088 28.1395 16.3911 27.9212 16.2577 27.657H16.2528Z" fill="white"/>
<path d="M21.2056 2C21.2056 2 26.1382 7.0115 16.5127 14.569C8.79591 20.6941 14.7582 24.1613 16.5076 28.1395C11.9725 24.0824 8.717 20.5348 10.9443 17.1953C14.2049 12.2612 23.1947 9.88947 21.2056 2ZM18.6745 24.8317C20.9822 27.4565 18.0388 29.8432 18.0388 29.8432C18.0388 29.8432 23.9257 26.8208 21.2204 23.0808C18.7549 19.5016 16.8432 17.7507 27.1863 11.7848C27.1863 11.7848 10.8788 15.8419 18.6745 24.8317Z" fill="white"/>
</g>
<defs>
<clipPath id="clip0_33_732">
<rect width="23.1875" height="28" fill="white" transform="translate(4 2)"/>
</clipPath>
</defs>
</svg>
