<svg width="350" height="350" viewBox="0 0 350 350" fill="none" xmlns="http://www.w3.org/2000/svg">
<g clip-path="url(#clip0_0_3)">
<rect x="119" y="320" width="109" height="20" fill="white"/>
<g clip-path="url(#clip1_0_3)">
<g filter="url(#filter0_i_0_3)">
<path fill-rule="evenodd" clip-rule="evenodd" d="M59.7844 306.173C66.1937 311.347 75.6 310.384 80.7625 303.964C85.9578 297.566 84.9844 288.159 78.575 282.964C72.1766 277.78 62.7813 278.775 57.575 285.173C52.6531 291.244 53.2875 300.005 58.8328 305.342L55.9234 302.783C21.5687 270.834 0 225.28 0 174.759C0 78.4 78.4 0 174.781 0C223.781 0 268.078 20.3109 299.852 52.8937C307.07 43.0719 313.327 32.0906 318.445 19.9172C340.714 86.8328 353.806 143.073 349.016 187.37C342.541 277.867 266.897 349.573 174.781 349.573C131.994 349.573 92.7938 334.086 62.3875 308.481L59.7844 306.173ZM317.691 251.683C361.55 193.32 337.105 98.9406 316.761 38.6203C298.638 76.3875 254.002 105.273 215.458 114.417C179.331 123.036 147.361 115.97 113.925 128.833C37.6906 158.145 38.8937 249.058 80.8937 269.489C80.9156 269.489 83.4094 270.845 83.3766 270.802C83.3766 270.78 145.108 258.53 179.233 245.93C229.108 227.511 283.861 182.109 301.875 129.369C292.283 184.22 245.197 236.994 197.892 261.231C172.714 274.159 153.136 277.036 111.705 291.375C106.63 293.103 92.1484 296.559 102.648 294.809C113.148 293.059 123.616 292.491 123.616 292.491C182.602 289.702 274.63 309.072 317.702 251.694L317.691 251.683Z" fill="#515151"/>
</g>
</g>
<path d="M302 129C263 222 182.5 250 83 270.5C83 270.5 80.1502 281.996 83.5 287.5C86.9959 293.244 99 295 99 295C156 278.5 275.5 256.5 302 129Z" fill="#D63447"/>
</g>
<defs>
<filter id="filter0_i_0_3" x="0" y="0" width="350" height="349.573" filterUnits="userSpaceOnUse" color-interpolation-filters="sRGB">
<feFlood flood-opacity="0" result="BackgroundImageFix"/>
<feBlend mode="normal" in="SourceGraphic" in2="BackgroundImageFix" result="shape"/>
<feColorMatrix in="SourceAlpha" type="matrix" values="0 0 0 0 0 0 0 0 0 0 0 0 0 0 0 0 0 0 127 0" result="hardAlpha"/>
<feOffset dy="-11"/>
<feComposite in2="hardAlpha" operator="arithmetic" k2="-1" k3="1"/>
<feColorMatrix type="matrix" values="0 0 0 0 0.435294 0 0 0 0 0.435294 0 0 0 0 0.435294 0 0 0 1 0"/>
<feBlend mode="normal" in2="shape" result="effect1_innerShadow_0_3"/>
</filter>
<clipPath id="clip0_0_3">
<rect width="350" height="350" fill="white"/>
</clipPath>
<clipPath id="clip1_0_3">
<rect width="350" height="350" fill="white"/>
</clipPath>
</defs>
</svg>
