<svg id="SvgjsSvg1001" width="288" height="288" xmlns="http://www.w3.org/2000/svg" version="1.1" xmlns:xlink="http://www.w3.org/1999/xlink" xmlns:svgjs="http://svgjs.com/svgjs"><defs id="SvgjsDefs1002"></defs><g id="SvgjsG1008"><svg xmlns="http://www.w3.org/2000/svg" viewBox="0 0 64 64" width="288" height="288"><path fill="#6f6f6f" d="M13.653 30.436H0V17.35c0-.57 0-.57.57-.57h13.37c-.285 4.836-.285 9.387-.285 13.653z" class="color1d396b svgShape"></path><path fill="#515151" d="M13.653 0v13.653H0V0h13.653z" class="color0b1f3b svgShape"></path><path fill="#6f6f6f" d="M50.347 33.564H64v13.653H50.347V33.564zm-2.845 16.783V64H33.85V50.347h13.653z" class="color1d396b svgShape"></path><path fill="#515151" d="M50.347 50.347H64V64H50.347V50.347z" class="color0b1f3b svgShape"></path><path fill="#6f6f6f" d="M30.436 0v13.653H16.782V0h13.653z" class="color1d396b svgShape"></path><path fill="#d63447" d="M30.436 16.782v13.653H16.782V16.782h13.653zM47.502 0v13.653H33.85V0h13.653zm-33.85 33.564v13.653H0V33.564h13.653zm33.85 0v13.653H33.85V33.564h13.653zM64 16.782v13.653H50.347V16.782H64zM30.436 50.347V64H16.782V50.347h13.653z" class="color7cb1df svgShape"></path></svg></g></svg>